<svg width="39" height="39" viewBox="0 0 39 39" fill="none" xmlns="http://www.w3.org/2000/svg">
<path d="M1.92212 7.36135H19.7643C20.302 9.80903 22.4879 11.6466 25.0947 11.6466C27.7015 11.6466 29.8874 9.80911 30.4251 7.36135H37.0784C37.7255 7.36135 38.2502 6.83665 38.2502 6.18948C38.2502 5.54231 37.7255 5.0176 37.0784 5.0176H30.4245C29.8858 2.57117 27.6969 0.732422 25.0947 0.732422C22.4911 0.732422 20.3033 2.57087 19.7647 5.0176H1.92212C1.27495 5.0176 0.750244 5.54231 0.750244 6.18948C0.750244 6.83665 1.27495 7.36135 1.92212 7.36135ZM21.9815 6.19255L21.9815 6.17996C21.9867 4.46851 23.3832 3.07625 25.0947 3.07625C26.8038 3.07625 28.2004 4.4666 28.2078 6.17725L28.208 6.19446C28.2053 7.90884 26.8097 9.30293 25.0947 9.30293C23.3804 9.30293 21.9853 7.91023 21.9814 6.19688L21.9815 6.19255ZM37.0784 31.6397H30.4245C29.8857 29.1934 27.6969 27.3546 25.0947 27.3546C22.4911 27.3546 20.3033 29.1931 19.7647 31.6397H1.92212C1.27495 31.6397 0.750244 32.1644 0.750244 32.8116C0.750244 33.4589 1.27495 33.9835 1.92212 33.9835H19.7643C20.302 36.4312 22.4879 38.2687 25.0947 38.2687C27.7015 38.2687 29.8874 36.4312 30.4251 33.9835H37.0784C37.7255 33.9835 38.2502 33.4589 38.2502 32.8116C38.2502 32.1644 37.7255 31.6397 37.0784 31.6397ZM25.0947 35.925C23.3804 35.925 21.9853 34.5323 21.9814 32.8189L21.9815 32.8147L21.9815 32.8021C21.9867 31.0906 23.3832 29.6983 25.0947 29.6983C26.8038 29.6983 28.2004 31.0887 28.2078 32.7992L28.208 32.8165C28.2055 34.5311 26.8099 35.925 25.0947 35.925ZM37.0784 18.3287H19.2362C18.6985 15.881 16.5126 14.0435 13.9058 14.0435C11.299 14.0435 9.11311 15.881 8.57537 18.3287H1.92212C1.27495 18.3287 0.750244 18.8534 0.750244 19.5006C0.750244 20.1478 1.27495 20.6725 1.92212 20.6725H8.57595C9.11479 23.1188 11.3036 24.9576 13.9058 24.9576C16.5094 24.9576 18.6972 23.1191 19.2358 20.6725H37.0784C37.7255 20.6725 38.2502 20.1478 38.2502 19.5006C38.2502 18.8534 37.7255 18.3287 37.0784 18.3287ZM17.019 19.4975L17.0189 19.5101C17.0138 21.2216 15.6173 22.6138 13.9058 22.6138C12.1967 22.6138 10.8001 21.2235 10.7927 19.5129L10.7925 19.4958C10.795 17.7812 12.1907 16.3873 13.9058 16.3873C15.6201 16.3873 17.0152 17.7799 17.0191 19.4933L17.019 19.4975Z" fill="#FFE3AF"/>
</svg>
